<?xml version="1.0" encoding="UTF-8" standalone="no"?>
<!DOCTYPE svg PUBLIC "-//W3C//DTD SVG 1.1//EN" "http://www.w3.org/Graphics/SVG/1.1/DTD/svg11.dtd">
<svg width="100%" height="100%" viewBox="0 0 1000 800" version="1.1" xmlns="http://www.w3.org/2000/svg" xmlns:xlink="http://www.w3.org/1999/xlink" xml:space="preserve" xmlns:serif="http://www.serif.com/" style="fill-rule:evenodd;clip-rule:evenodd;stroke-linecap:round;stroke-linejoin:round;stroke-miterlimit:1.5;">
    <path d="M-29.289,719.811C-29.529,726.394 64.587,746.541 69.471,728.241C72.776,715.855 19.325,624.286 42.176,611.464C47.737,602.016 42.08,606.501 31.982,601.098C57.144,601.246 41.984,574.536 24.9,551.96C33.174,536.909 34.279,518.836 29.998,498.492C23.657,489.903 16.668,483.696 26.349,472.439C55.229,438.858 28.544,399.912 -14.999,428.102L-10.415,381.626L84.989,382.921C83.124,357.935 85.857,336.142 96.494,319.838C122.517,315.042 138.594,295.346 110.432,269.761C89.972,251.173 136.472,222.814 139.165,201.716C143.711,166.103 181.687,140.425 190.202,93.586C225.236,92.368 243.478,8.068 231.631,0.016C220.853,-7.308 152.064,-2.435 152.064,-2.435C140.149,-15.432 -19.176,68.28 -13.654,84.506C-8.106,100.81 -29.166,716.453 -29.289,719.811Z" style="fill:rgb(255,0,0);stroke:rgb(255,0,0);stroke-width:1px;"/>
    <path d="M761.109,812.445C748.433,798.162 741.357,791.108 749.516,774.428C771.455,729.585 722.283,713.974 723.677,695.65C725.433,672.584 743.093,561.033 689.192,530.234C676.96,523.245 682.238,496.264 709.258,473.53C752.947,436.773 752.652,457.009 758.95,297.322C760.577,256.067 765.693,145.609 732.207,129.172C721.26,123.798 717.696,88.125 718.815,72.767C762.659,75.033 787.139,31.368 810.02,-14.461L573.674,-19.891C451.117,130.476 400.01,209.662 441.386,313.569C461.366,363.747 506.251,364.544 567.979,358.655C607.113,354.922 623.704,398.973 586.61,506.929C557.774,590.854 496.849,614.185 443.713,600.358C388.227,534.353 358.524,503.944 296.291,449.12C213.348,376.052 238.717,531.475 229.797,629.11C227.58,653.38 284.289,759.723 349.615,816.251L761.109,812.445Z" style="fill:rgb(255,0,0);stroke:rgb(255,0,0);stroke-width:1px;"/>
    <path d="M1012.54,752.952C933.029,713.897 916.638,625.589 980.312,570.635C1000.98,560.313 960.444,468.228 927.786,442.627C771.082,319.781 914.18,115.613 1020.33,9.656L1012.54,752.952Z" style="fill:rgb(255,0,0);stroke:rgb(255,0,0);stroke-width:1px;"/>
    <g>
        <g transform="matrix(1.64139,0,0,2.25589,-493.351,-218.992)">
            <path d="M774.264,324.375C787.799,316.642 802.966,321.924 820.9,349.264C824.91,366.874 819.478,372.876 808.95,383.081C778.898,382.045 770.625,385.718 765.54,380.951C766.869,379.914 766.951,327.764 774.264,324.375Z" style="stroke:black;stroke-width:0.51px;"/>
        </g>
        <path d="M771.68,47.153C761.264,23.826 771.81,4.124 805.187,-8.126C822.124,-4.087 836.229,4.886 846.039,21.338C857.683,28.1 867.426,36.637 860.115,54.337C855.969,117.24 827.616,76.829 826.294,93.272C808.123,107.359 807.317,90.422 810.011,61.488C799.706,46.382 786.852,43.189 771.68,47.153Z" style="stroke:black;stroke-width:1px;"/>
        <path d="M476.555,391.95C500.709,392.935 479.497,405.775 573.973,419.93C592.874,424.69 600.781,440.244 574.315,455.674C585.36,468.71 590.117,483.959 582.918,503.411C579.451,512.78 550.329,505.619 553.761,541.565C563.359,551.737 573.6,587.59 541.284,579.591C531.477,619.789 517.261,588.841 523.27,563.074C512.924,562.391 499.601,555.951 501.289,566.47C514.31,647.619 479.871,610.217 480.078,569.804L454.868,569.169C459.803,590.717 461.08,607.346 447.584,629.21C430.226,657.33 397.094,610.534 387.556,639.919C379.303,665.346 344.504,648.269 371.061,611.027C383.733,593.258 378.633,577.324 371.594,553.98C358.419,554.729 341.099,555.266 342.084,541.134C344.004,513.585 345.611,490.035 355.993,478.972C369.006,445.849 389.862,460.89 415.395,439.239C438.844,419.355 453.871,391.026 476.555,391.95Z" style="stroke:black;stroke-width:1px;"/>
        <path d="M384.96,365.541C389.312,333.237 365.797,327.841 348.616,318.164C390.847,289.816 385.486,264.653 366.267,237.968C392.076,165.181 331.468,154.608 335.009,224.957C336.055,245.745 292.902,247.587 297.423,207.947C301.182,174.987 296.307,135.788 263.923,147.013C252.944,150.819 243.458,115.778 226.995,123.458C208.753,131.967 228.026,160.584 222.132,178.12C219.462,190.301 219.916,199.795 223.801,206.338C230.415,216.162 230.781,221.891 226.577,233.149C211.586,281.762 231.386,285.101 248.432,286.534C257.826,285.836 268.563,295.57 280.239,312.595C282.357,316.906 287.086,319.564 296.161,319.475C280.359,342.24 281.497,351.741 311.343,338.764C319.722,332.228 319.846,342.702 310.909,366.56C308.763,372.29 383.223,378.435 384.96,365.541Z" style="stroke:black;stroke-width:1px;"/>
        <path d="M129.842,650.271C129.842,650.271 126.66,612.456 129.791,608.105C134.084,602.138 123.055,552.297 118.72,552.929C91.448,499.032 56.414,494.044 68.593,555.144C73.274,578.627 74.122,585.669 44.369,579.51C36.21,577.821 10.254,613.604 36.247,622.786C51.26,628.089 52.091,641.48 40.723,648.663C23.778,659.369 34.449,681.138 58.599,705.309L100.722,741.704C116.548,752.479 126.966,743.892 119.841,732.09C111.382,722.026 99.218,711.203 98.652,701.863C96.58,667.665 86.514,650.812 72.183,645.639C63.674,632.489 65.524,627.602 75.828,620.514C72,589.277 92.348,592.916 96.55,620.625C108.144,628.505 107.881,643.646 111.776,655.441C141.244,691.677 146.292,676.676 129.842,650.271Z" style="stroke:black;stroke-width:1px;"/>
        <path d="M309.542,640.514C302.442,623.471 312.107,614.508 329.866,620.508C344.856,627.68 358.648,644.012 371.335,668.781C413.553,667.022 392.807,689.433 405.898,711.612C433.978,733.551 441.096,760.898 392.674,744.666C370.065,752.5 360.717,749.219 374.491,726.559C386.031,716.553 379.89,702.788 360.916,690.616C349.997,683.612 309.405,639.2 309.542,640.514Z" style="stroke:black;stroke-width:1px;"/>
    </g>
</svg>
