<?xml version="1.0" encoding="UTF-8" standalone="no"?>
<!DOCTYPE svg PUBLIC "-//W3C//DTD SVG 1.1//EN" "http://www.w3.org/Graphics/SVG/1.1/DTD/svg11.dtd">
<svg width="100%" height="100%" viewBox="0 0 1000 800" version="1.1" xmlns="http://www.w3.org/2000/svg" xmlns:xlink="http://www.w3.org/1999/xlink" xml:space="preserve" xmlns:serif="http://www.serif.com/" style="fill-rule:evenodd;clip-rule:evenodd;stroke-linecap:round;stroke-linejoin:round;stroke-miterlimit:1.5;">
    <g>
        <g transform="matrix(0.905194,0,0,1.0201,96.5728,-16.1728)">
            <path d="M653.051,797.583C499.36,514.463 779.444,-59.571 821.859,-0.821C834.454,16.623 1066.21,33.151 1009.8,10.046L960.649,588.618C908.278,709.313 923.609,536.938 874.468,426.893C857.183,427.266 790.015,490.527 800.373,519.353C846.621,609.357 891.537,701.279 929.476,803.245C929.476,803.245 658.984,808.513 653.051,797.583Z" style="fill:rgb(255,0,0);stroke:rgb(255,0,0);stroke-width:1.04px;"/>
        </g>
        <path d="M485.361,-9.571C454.838,32.086 454.046,244.956 447.462,452.958C421.756,448.191 419.941,416.687 424.605,377.932C365.728,386.368 315.133,221.371 355.023,170.356C393.544,121.091 325.917,40.231 353.747,-13.768L485.361,-9.571Z" style="fill:rgb(255,0,0);stroke:rgb(255,0,0);stroke-width:1px;"/>
        <path d="M285.532,-13.768C243.155,54.205 229.587,134.15 238.306,225.405C228.559,213.489 223.146,216.75 219.703,226.909C209.697,256.293 207.038,283.274 204.757,310.131C200.33,362.242 174.354,362.798 167.311,295.01C160.298,227.514 96.833,185.26 143.434,157.413C196.443,125.737 214.354,14.268 228.338,-20.32L285.532,-13.768Z" style="fill:rgb(255,0,0);stroke:rgb(255,0,0);stroke-width:1px;"/>
        <path d="M120.151,-3.438C37.257,-9.06 4.156,88.56 -9.992,225.479L-5.748,-15.392L120.151,-3.438Z" style="fill:rgb(255,0,0);stroke:rgb(255,0,0);stroke-width:1px;"/>
        <g transform="matrix(0.859736,0,0,1.00718,-0.577172,-5.78324)">
            <path d="M343.504,805.245C349.764,769.98 326.201,769.865 303.536,732.475C298.113,723.529 357.039,704.303 330.703,672.867C289.378,623.541 355.88,627.108 334.202,571.128C337.108,508.926 316.837,438.281 294.993,436.315C264.982,433.614 266.362,454.823 254.741,485.467C223.281,401.503 201.386,410.319 176.665,426.076C162.772,434.931 134.841,474.713 126.189,484.72C128.309,480.58 68.547,506.749 81.029,425.004C83.397,409.499 91.458,383.355 59.851,377.144C39.135,373.073 13.698,376.919 -3.324,379.07L-4.115,490.632C34.611,596.08 93.132,703.092 158.422,804.948L343.504,805.245Z" style="fill:rgb(255,0,0);stroke:rgb(255,0,0);stroke-width:1.07px;"/>
        </g>
    </g>
    <g transform="matrix(1,0,0,1,-26.9465,-8.90715)">
        <path d="M143.133,-7.031C86.543,60.385 107.478,91.889 92.093,129.709C84.774,147.702 26.034,177.619 44.309,285.825C33.931,296.776 30.44,315.755 43.194,330.685C52.608,385.818 181.57,385.93 86.193,302.748C71.166,289.643 81.831,237.061 102.706,189.489C144.393,170.671 203.869,-8.825 193.768,-14.798C174.513,-26.183 162.533,-15.105 177.339,-14.314C192.762,-13.491 143.133,-7.031 143.133,-7.031Z" style="fill:rgb(17,0,0);stroke:black;stroke-width:1px;"/>
    </g>
    <path d="M281.726,-9.956C241.753,39.874 218.068,191.738 245.794,246.659C219.858,284.66 213.164,366.443 235.057,365.533C250.895,364.874 262.921,351.769 280.285,342.327C309.107,326.656 261.799,240.149 268.762,214.717C287.969,144.567 317.692,87.424 322.446,-4.852L281.726,-9.956Z" style="stroke:black;stroke-width:1px;"/>
    <g transform="matrix(1.03357,0,0,1.0001,-25.8066,-0.0829277)">
        <path d="M926.631,800.017C974.315,762.201 948.131,729.288 944.805,700.2C941.108,667.882 942.232,385.76 949.589,242.041C950.995,214.573 935.586,127.639 877.392,134.359C855.199,136.922 849.21,186.104 857.689,300.801C870.516,339.361 869.685,411.538 839.72,428.065C824.301,436.57 805.929,471.957 798.615,476.671C780.653,488.248 752.385,455.545 738.769,440.587C710.182,409.184 776.355,335.772 801.371,319.254C817.2,245.857 815.866,213.724 801.08,197.474C764.799,173.09 773.501,141.003 817.236,121.718C830.106,116.043 821.343,21.191 845.038,-15.893C845.038,-15.893 985.674,-23.702 994.162,-23.432C1002.65,-23.162 1019.65,802.196 1019.65,802.196L926.631,800.017Z" style="stroke:black;stroke-width:0.98px;"/>
    </g>
    <g transform="matrix(0.673696,0.0356619,-0.0546066,1.03158,150.894,-34.9949)">
        <path d="M554.962,825.205C573.771,648.401 529.611,472.303 574.915,250.31C580.692,222.004 657.03,226.515 582.105,140.212C573.205,118.719 603.853,80.171 651.317,4.65L476.979,-2.574C436.904,20.689 445.436,406.101 444.472,446.928C409.327,426.413 406.262,461.577 387.64,448.676C385.747,447.364 387.054,449.542 387.64,448.676C388.315,447.678 388.515,448.782 387.64,448.676C353.203,444.486 332.394,449.212 361.106,486.33C391.162,603.311 395.424,711.004 396.278,817.47L554.962,825.205Z" style="stroke:black;stroke-width:1.15px;"/>
    </g>
    <path d="M95.195,835.276C94.805,826.323 -20.027,569.945 -20.027,569.945C-20.027,569.945 -0.264,475.678 -0.898,476.161C-16.609,488.12 154.685,830.712 179.46,811.58C179.46,811.58 96.451,864.136 95.195,835.276Z" style="stroke:black;stroke-width:1px;"/>
</svg>
